<svg width="122" height="46" viewBox="0 0 122 46" fill="none" xmlns="http://www.w3.org/2000/svg">
<path d="M4.49356 16.91C6.15384 19.6334 8.24133 23.5085 9.96825 27.6934C11.9397 32.471 13.3889 37.5277 13.2937 41.6999C13.1251 41.8831 12.9531 42.0682 12.7754 42.2534L9.88916 45.2619L6.87153 42.1187C3.38772 38.4897 1.80732 35.4412 1.13284 31.0478C0.399404 26.2702 1.75193 20.6775 4.49356 16.91Z" fill="#FAFAFA"/>
<path d="M14.951 2.50826C12.8864 -0.838275 13.9786 -0.835594 17.1785 2.51335C19.2138 4.64368 19.8135 5.54076 19.8135 6.45411C19.8135 7.82756 18.3768 9.9296 15.5329 12.7158L13.5422 14.6666L14.9979 16.61C17.3853 19.7977 18.6598 23.6633 18.6792 27.778C18.7017 32.5525 17.7312 35.9603 15.1971 39.4072C14.8477 35.3763 13.4681 30.9627 11.8004 26.9213C9.90231 22.3217 7.584 18.0924 5.82017 15.2687L6.23071 14.7763L3.30806 11.6844C-0.993094 7.1345 -1.04396 6.12268 2.8289 2.17843C5.03402 -0.0673949 5.33906 -0.259866 5.45498 0.521042C5.52723 1.00721 5.31994 1.70561 4.99482 2.07345C4.38947 2.75774 4.20126 3.43168 4.28461 4.61613C4.31041 4.98476 5.58124 6.60935 7.10917 8.22627L9.88645 11.1662L12.259 8.65991C13.5638 7.28124 14.8939 5.64145 15.2138 5.01569C15.7473 3.97399 15.7251 3.76337 14.951 2.50826Z" fill="#FAFAFA"/>
<path d="M36.7772 11.9116C36.7772 13.1912 36.3406 14.2575 35.4672 15.1106C34.6084 15.949 33.2911 16.3681 31.5153 16.3681H28.5896V22.7882H26.6028V7.41099H31.5153C33.2329 7.41099 34.5357 7.83016 35.4236 8.66852C36.326 9.50687 36.7772 10.5879 36.7772 11.9116ZM31.5153 14.7135C32.6216 14.7135 33.4367 14.4708 33.9607 13.9854C34.4847 13.5001 34.7467 12.8088 34.7467 11.9116C34.7467 10.0143 33.6696 9.06563 31.5153 9.06563H28.5896V14.7135H31.5153Z" fill="#FAFAFA"/>
<path d="M41.2335 12.6617C41.5829 11.9705 42.0778 11.4336 42.7182 11.0512C43.3732 10.6688 44.1665 10.4776 45.0981 10.4776V12.5514H44.5741C42.347 12.5514 41.2335 13.7722 41.2335 16.2137V22.7882H39.2467V10.6982H41.2335V12.6617Z" fill="#FAFAFA"/>
<path d="M58.3084 16.2799C58.3084 16.6623 58.2866 17.0668 58.2429 17.4933H48.6798C48.7526 18.6846 49.1529 19.6186 49.8807 20.2952C50.623 20.957 51.5182 21.2879 52.5662 21.2879C53.425 21.2879 54.1382 21.0894 54.7059 20.6923C55.2881 20.2805 55.6957 19.7363 55.9286 19.0597H58.0683C57.748 20.2216 57.1076 21.1703 56.1469 21.9057C55.1862 22.6264 53.9927 22.9867 52.5662 22.9867C51.4308 22.9867 50.4119 22.7293 49.5095 22.2145C48.6216 21.6998 47.9229 20.9717 47.4135 20.0304C46.904 19.0744 46.6493 17.9713 46.6493 16.7211C46.6493 15.471 46.8967 14.3752 47.3916 13.4339C47.8865 12.4926 48.5779 11.7719 49.4658 11.2718C50.3683 10.757 51.4017 10.4997 52.5662 10.4997C53.7015 10.4997 54.7059 10.7497 55.5792 11.2498C56.4526 11.7498 57.1221 12.4411 57.5879 13.3236C58.0683 14.1914 58.3084 15.1768 58.3084 16.2799ZM56.2561 15.8607C56.2561 15.0959 56.0887 14.4414 55.7539 13.8972C55.4191 13.3383 54.9606 12.9191 54.3784 12.6397C53.8107 12.3455 53.1775 12.1984 52.4789 12.1984C51.4745 12.1984 50.6157 12.522 49.9025 13.1692C49.2038 13.8163 48.8035 14.7135 48.7016 15.8607H56.2561Z" fill="#FAFAFA"/>
<path d="M75.3194 10.4776C76.2509 10.4776 77.0806 10.6762 77.8084 11.0733C78.5362 11.4557 79.1111 12.0366 79.5333 12.8162C79.9554 13.5957 80.1664 14.5443 80.1664 15.6622V22.7882H78.2014V15.949C78.2014 14.7429 77.903 13.8237 77.3062 13.1912C76.724 12.5441 75.9307 12.2205 74.9264 12.2205C73.8929 12.2205 73.0705 12.5588 72.4592 13.2353C71.8478 13.8972 71.5422 14.8606 71.5422 16.1255V22.7882H69.5771V15.949C69.5771 14.7429 69.2787 13.8237 68.6819 13.1912C68.0997 12.5441 67.3064 12.2205 66.3021 12.2205C65.2686 12.2205 64.4462 12.5588 63.8349 13.2353C63.2236 13.8972 62.9179 14.8606 62.9179 16.1255V22.7882H60.931V10.6982H62.9179V12.4411C63.3109 11.8087 63.8349 11.3233 64.4899 10.985C65.1595 10.6467 65.8945 10.4776 66.6951 10.4776C67.6994 10.4776 68.5873 10.7056 69.3588 11.1615C70.1302 11.6175 70.7052 12.2867 71.0836 13.1692C71.4184 12.3161 71.9715 11.6542 72.743 11.1836C73.5145 10.7129 74.3732 10.4776 75.3194 10.4776Z" fill="#FAFAFA"/>
<path d="M84.4518 8.7347C84.0733 8.7347 83.7531 8.60233 83.4911 8.33759C83.2291 8.07285 83.0981 7.74927 83.0981 7.36686C83.0981 6.98446 83.2291 6.66088 83.4911 6.39614C83.7531 6.1314 84.0733 5.99902 84.4518 5.99902C84.8157 5.99902 85.1213 6.1314 85.3688 6.39614C85.6308 6.66088 85.7618 6.98446 85.7618 7.36686C85.7618 7.74927 85.6308 8.07285 85.3688 8.33759C85.1213 8.60233 84.8157 8.7347 84.4518 8.7347ZM85.4125 10.6982V22.7882H83.4256V10.6982H85.4125Z" fill="#FAFAFA"/>
<path d="M99.4099 10.6982V22.7882H97.423V21.0011C97.0445 21.6189 96.5133 22.1042 95.8291 22.4572C95.1596 22.7955 94.4172 22.9647 93.6021 22.9647C92.6705 22.9647 91.8336 22.7735 91.0912 22.391C90.3489 21.9939 89.7594 21.4056 89.3227 20.6261C88.9006 19.8466 88.6896 18.8979 88.6896 17.7801V10.6982H90.6546V17.5154C90.6546 18.7067 90.953 19.6259 91.5498 20.2731C92.1465 20.9055 92.9617 21.2218 93.9951 21.2218C95.0577 21.2218 95.8946 20.8908 96.506 20.229C97.1173 19.5671 97.423 18.6037 97.423 17.3389V10.6982H99.4099Z" fill="#FAFAFA"/>
<path d="M117.153 10.4776C118.084 10.4776 118.914 10.6762 119.642 11.0733C120.37 11.4557 120.945 12.0366 121.367 12.8162C121.789 13.5957 122 14.5443 122 15.6622V22.7882H120.035V15.949C120.035 14.7429 119.737 13.8237 119.14 13.1912C118.558 12.5441 117.764 12.2205 116.76 12.2205C115.726 12.2205 114.904 12.5588 114.293 13.2353C113.681 13.8972 113.376 14.8606 113.376 16.1255V22.7882H111.411V15.949C111.411 14.7429 111.112 13.8237 110.515 13.1912C109.933 12.5441 109.14 12.2205 108.136 12.2205C107.102 12.2205 106.28 12.5588 105.668 13.2353C105.057 13.8972 104.751 14.8606 104.751 16.1255V22.7882H102.765V10.6982H104.751V12.4411C105.144 11.8087 105.668 11.3233 106.323 10.985C106.993 10.6467 107.728 10.4776 108.529 10.4776C109.533 10.4776 110.421 10.7056 111.192 11.1615C111.964 11.6175 112.539 12.2867 112.917 13.1692C113.252 12.3161 113.805 11.6542 114.577 11.1836C115.348 10.7129 116.207 10.4776 117.153 10.4776Z" fill="#FAFAFA"/>
<path d="M45.2824 32.7866C45.2824 32.0774 45.4441 31.4413 45.7675 30.8781C46.0977 30.3149 46.5416 29.8769 47.0989 29.564C47.6632 29.2442 48.279 29.0842 48.9464 29.0842C49.7102 29.0842 50.388 29.2754 50.9797 29.6578C51.5784 30.0333 52.0119 30.5687 52.2802 31.264H50.8662C50.6804 30.8815 50.4224 30.5965 50.0921 30.4088C49.7618 30.221 49.3799 30.1272 48.9464 30.1272C48.4717 30.1272 48.0485 30.2349 47.6769 30.4505C47.3053 30.666 47.0129 30.9754 46.7996 31.3787C46.5932 31.7819 46.49 32.2513 46.49 32.7866C46.49 33.322 46.5932 33.7913 46.7996 34.1946C47.0129 34.5978 47.3053 34.9107 47.6769 35.1332C48.0485 35.3488 48.4717 35.4565 48.9464 35.4565C49.3799 35.4565 49.7618 35.3627 50.0921 35.1749C50.4224 34.9872 50.6804 34.7021 50.8662 34.3197H52.2802C52.0119 35.015 51.5784 35.5504 50.9797 35.9258C50.388 36.3013 49.7102 36.489 48.9464 36.489C48.2721 36.489 47.6563 36.3326 47.0989 36.0197C46.5416 35.6999 46.0977 35.2584 45.7675 34.6952C45.4441 34.132 45.2824 33.4958 45.2824 32.7866Z" fill="#FAFAFA"/>
<path d="M56.8984 28.7088V36.4265H55.7218V28.7088H56.8984Z" fill="#FAFAFA"/>
<path d="M62.9743 36.5203C62.4376 36.5203 61.9525 36.3986 61.519 36.1553C61.0855 35.905 60.7449 35.5573 60.4972 35.1124C60.2494 34.6604 60.1256 34.139 60.1256 33.548C60.1256 32.9639 60.2529 32.4459 60.5075 31.994C60.7621 31.5421 61.1096 31.1944 61.5499 30.9511C61.9903 30.7077 62.4823 30.5861 63.0259 30.5861C63.5695 30.5861 64.0615 30.7077 64.5018 30.9511C64.9422 31.1944 65.2897 31.5421 65.5443 31.994C65.7989 32.4459 65.9262 32.9639 65.9262 33.548C65.9262 34.132 65.7954 34.65 65.534 35.1019C65.2725 35.5539 64.9147 35.905 64.4605 36.1553C64.0133 36.3986 63.5179 36.5203 62.9743 36.5203ZM62.9743 35.4878C63.277 35.4878 63.5591 35.4148 63.8206 35.2688C64.089 35.1228 64.3057 34.9038 64.4709 34.6118C64.636 34.3197 64.7186 33.9651 64.7186 33.548C64.7186 33.1308 64.6394 32.7797 64.4812 32.4946C64.3229 32.2026 64.1131 31.9836 63.8516 31.8376C63.5901 31.6916 63.308 31.6185 63.0052 31.6185C62.7025 31.6185 62.4204 31.6916 62.1589 31.8376C61.9043 31.9836 61.7013 32.2026 61.5499 32.4946C61.3985 32.7797 61.3229 33.1308 61.3229 33.548C61.3229 34.1668 61.4777 34.6465 61.7873 34.9872C62.1038 35.3209 62.4995 35.4878 62.9743 35.4878Z" fill="#FAFAFA"/>
<path d="M70.5263 31.6498V34.8308C70.5263 35.0463 70.5745 35.2027 70.6708 35.3001C70.7741 35.3905 70.9461 35.4357 71.1869 35.4357H71.9094V36.4265H70.9805C70.4507 36.4265 70.0447 36.3013 69.7626 36.051C69.4805 35.8007 69.3394 35.3939 69.3394 34.8308V31.6498H68.6685V30.6799H69.3394V29.2511H70.5263V30.6799H71.9094V31.6498H70.5263Z" fill="#FAFAFA"/>
<path d="M77.9997 30.5861C78.4332 30.5861 78.8186 30.6799 79.1557 30.8676C79.4998 31.0554 79.7681 31.3335 79.9608 31.702C80.1603 32.0705 80.2601 32.5155 80.2601 33.0369V36.4265H79.0938V33.2142C79.0938 32.6997 78.9665 32.3069 78.7119 32.0357C78.4573 31.7576 78.1098 31.6185 77.6694 31.6185C77.2291 31.6185 76.8781 31.7576 76.6167 32.0357C76.3621 32.3069 76.2348 32.6997 76.2348 33.2142V36.4265H75.0581V28.7088H76.2348V31.3474C76.4343 31.104 76.6855 30.9163 76.9882 30.7842C77.2979 30.6521 77.635 30.5861 77.9997 30.5861Z" fill="#FAFAFA"/>
<path d="M84.4239 29.9186C84.2106 29.9186 84.0317 29.8456 83.8872 29.6996C83.7427 29.5536 83.6704 29.3728 83.6704 29.1572C83.6704 28.9417 83.7427 28.7609 83.8872 28.6149C84.0317 28.4689 84.2106 28.3959 84.4239 28.3959C84.6303 28.3959 84.8058 28.4689 84.9503 28.6149C85.0948 28.7609 85.167 28.9417 85.167 29.1572C85.167 29.3728 85.0948 29.5536 84.9503 29.6996C84.8058 29.8456 84.6303 29.9186 84.4239 29.9186ZM85.0019 30.6799V36.4265H83.8252V30.6799H85.0019Z" fill="#FAFAFA"/>
<path d="M91.4803 30.5861C91.9275 30.5861 92.3266 30.6799 92.6776 30.8676C93.0354 31.0554 93.314 31.3335 93.5136 31.702C93.7131 32.0705 93.8129 32.5155 93.8129 33.0369V36.4265H92.6466V33.2142C92.6466 32.6997 92.5193 32.3069 92.2647 32.0357C92.0101 31.7576 91.6626 31.6185 91.2223 31.6185C90.7819 31.6185 90.431 31.7576 90.1695 32.0357C89.9149 32.3069 89.7876 32.6997 89.7876 33.2142V36.4265H88.611V30.6799H89.7876V31.337C89.9803 31.1006 90.2245 30.9163 90.5204 30.7842C90.8232 30.6521 91.1431 30.5861 91.4803 30.5861Z" fill="#FAFAFA"/>
<path d="M99.6694 30.5861C100.11 30.5861 100.499 30.6764 100.836 30.8572C101.18 31.031 101.448 31.2501 101.641 31.5143V30.6799H102.828V36.5203C102.828 37.0487 102.718 37.518 102.497 37.9283C102.277 38.3454 101.957 38.6722 101.538 38.9086C101.125 39.145 100.629 39.2632 100.051 39.2632C99.2806 39.2632 98.6407 39.079 98.1315 38.7105C97.6223 38.3489 97.3333 37.8553 97.2645 37.2295H98.4308C98.5203 37.5285 98.7095 37.7684 98.9985 37.9491C99.2944 38.1369 99.6453 38.2307 100.051 38.2307C100.526 38.2307 100.908 38.0847 101.197 37.7927C101.493 37.5007 101.641 37.0765 101.641 36.5203V35.5608C101.441 35.832 101.169 36.0614 100.825 36.2492C100.488 36.4299 100.103 36.5203 99.6694 36.5203C99.174 36.5203 98.7198 36.3952 98.307 36.1449C97.901 35.8876 97.5776 35.533 97.3368 35.0811C97.1028 34.6222 96.9858 34.1042 96.9858 33.5271C96.9858 32.95 97.1028 32.439 97.3368 31.994C97.5776 31.549 97.901 31.2049 98.307 30.9615C98.7198 30.7112 99.174 30.5861 99.6694 30.5861ZM101.641 33.548C101.641 33.1517 101.558 32.8075 101.393 32.5155C101.235 32.2234 101.025 32.001 100.763 31.848C100.502 31.695 100.22 31.6185 99.9171 31.6185C99.6143 31.6185 99.3322 31.695 99.0707 31.848C98.8093 31.994 98.596 32.213 98.4308 32.505C98.2726 32.7901 98.1934 33.1308 98.1934 33.5271C98.1934 33.9234 98.2726 34.2711 98.4308 34.57C98.596 34.869 98.8093 35.0985 99.0707 35.2584C99.3391 35.4113 99.6212 35.4878 99.9171 35.4878C100.22 35.4878 100.502 35.4113 100.763 35.2584C101.025 35.1054 101.235 34.8829 101.393 34.5909C101.558 34.2919 101.641 33.9443 101.641 33.548Z" fill="#FAFAFA"/>
</svg>
