<svg xmlns="http://www.w3.org/2000/svg" viewBox="0 0 3 2" width="240" height="160">
  <!-- Saffron / White / Green -->
  <rect width="3" height="2" fill="#fff"></rect>
  <rect width="3" height="0.6667" y="0" fill="#FF9933"></rect>
  <rect width="3" height="0.6667" y="1.3333" fill="#138808"></rect>

  <!-- Ashoka Chakra -->
  <g transform="translate(1.5,1)" stroke="#000080" fill="none">
    <!-- Outer wheel -->
    <circle r="0.22" stroke-width="0.03"></circle>
    <!-- Hub -->
    <circle r="0.03" fill="#000080" stroke="none"></circle>
    <!-- 24 spokes -->
    <g stroke-width="0.02" stroke-linecap="round">
      <line x1="0" y1="0" x2="0" y2="-0.22"></line>
      <g transform="rotate(15)">
        <line x1="0" y1="0" x2="0" y2="-0.22"></line>
      </g>
      <g transform="rotate(30)">
        <line x1="0" y1="0" x2="0" y2="-0.22"></line>
      </g>
      <g transform="rotate(45)">
        <line x1="0" y1="0" x2="0" y2="-0.22"></line>
      </g>
      <g transform="rotate(60)">
        <line x1="0" y1="0" x2="0" y2="-0.22"></line>
      </g>
      <g transform="rotate(75)">
        <line x1="0" y1="0" x2="0" y2="-0.22"></line>
      </g>
      <g transform="rotate(90)">
        <line x1="0" y1="0" x2="0" y2="-0.22"></line>
      </g>
      <g transform="rotate(105)">
        <line x1="0" y1="0" x2="0" y2="-0.22"></line>
      </g>
      <g transform="rotate(120)">
        <line x1="0" y1="0" x2="0" y2="-0.22"></line>
      </g>
      <g transform="rotate(135)">
        <line x1="0" y1="0" x2="0" y2="-0.22"></line>
      </g>
      <g transform="rotate(150)">
        <line x1="0" y1="0" x2="0" y2="-0.22"></line>
      </g>
      <g transform="rotate(165)">
        <line x1="0" y1="0" x2="0" y2="-0.22"></line>
      </g>
      <g transform="rotate(180)">
        <line x1="0" y1="0" x2="0" y2="-0.22"></line>
      </g>
      <g transform="rotate(195)">
        <line x1="0" y1="0" x2="0" y2="-0.22"></line>
      </g>
      <g transform="rotate(210)">
        <line x1="0" y1="0" x2="0" y2="-0.22"></line>
      </g>
      <g transform="rotate(225)">
        <line x1="0" y1="0" x2="0" y2="-0.22"></line>
      </g>
      <g transform="rotate(240)">
        <line x1="0" y1="0" x2="0" y2="-0.22"></line>
      </g>
      <g transform="rotate(255)">
        <line x1="0" y1="0" x2="0" y2="-0.22"></line>
      </g>
      <g transform="rotate(270)">
        <line x1="0" y1="0" x2="0" y2="-0.22"></line>
      </g>
      <g transform="rotate(285)">
        <line x1="0" y1="0" x2="0" y2="-0.22"></line>
      </g>
      <g transform="rotate(300)">
        <line x1="0" y1="0" x2="0" y2="-0.22"></line>
      </g>
      <g transform="rotate(315)">
        <line x1="0" y1="0" x2="0" y2="-0.22"></line>
      </g>
      <g transform="rotate(330)">
        <line x1="0" y1="0" x2="0" y2="-0.22"></line>
      </g>
      <g transform="rotate(345)">
        <line x1="0" y1="0" x2="0" y2="-0.22"></line>
      </g>
    </g>
  </g>
</svg>
