<svg width="108" height="40" viewBox="0 0 108 40" fill="none" xmlns="http://www.w3.org/2000/svg">
<path d="M3.97116 14.9442C5.43843 17.351 7.28324 20.7755 8.80939 24.4739C10.5517 28.6961 11.8324 33.165 11.7482 36.8521C11.5993 37.014 11.4472 37.1776 11.2902 37.3413L8.7395 40L6.07269 37.2222C2.99389 34.0151 1.59721 31.321 1.00114 27.4383C0.352971 23.2162 1.54826 18.2737 3.97116 14.9442Z" fill="#FFAFCC"/>
<path d="M13.2129 2.21667C11.3883 -0.740822 12.3535 -0.738453 15.1815 2.22117C16.9801 4.10384 17.5101 4.89663 17.5101 5.70379C17.5101 6.91757 16.2404 8.77524 13.7271 11.2376L11.9678 12.9616L13.2543 14.679C15.3641 17.4961 16.4905 20.9123 16.5077 24.5487C16.5275 28.7682 15.6699 31.7797 13.4304 34.8259C13.1216 31.2637 11.9023 27.3632 10.4285 23.7916C8.75112 19.7267 6.70233 15.9891 5.14355 13.4936L5.50636 13.0585L2.92349 10.3261C-0.877643 6.30508 -0.922599 5.41089 2.50003 1.92518C4.44879 -0.0595599 4.71837 -0.229656 4.82082 0.460469C4.88467 0.890115 4.70147 1.50733 4.41415 1.8324C3.87917 2.43714 3.71284 3.03273 3.7865 4.07949C3.8093 4.40526 4.93239 5.84098 6.2827 7.26993L8.7371 9.86805L10.8338 7.65316C11.987 6.43476 13.1624 4.98561 13.4451 4.4326C13.9166 3.512 13.897 3.32587 13.2129 2.21667Z" fill="#FFAFCC"/>
<path d="M32.5018 10.5267C32.5018 11.6575 32.1159 12.5999 31.344 13.3538C30.5851 14.0947 29.4209 14.4651 27.8516 14.4651H25.266V20.1388H23.5101V6.54928H27.8516C29.3695 6.54928 30.5208 6.91972 31.3055 7.66061C32.103 8.40151 32.5018 9.35687 32.5018 10.5267ZM27.8516 13.0028C28.8292 13.0028 29.5496 12.7884 30.0127 12.3594C30.4758 11.9305 30.7073 11.3196 30.7073 10.5267C30.7073 8.84994 29.7554 8.01156 27.8516 8.01156H25.266V13.0028H27.8516Z" fill="#010101"/>
<path d="M36.44 11.1896C36.7487 10.5787 37.1861 10.1043 37.7521 9.76631C38.3309 9.42836 39.032 9.25938 39.8553 9.25938V11.0921H39.3922C37.424 11.0921 36.44 12.171 36.44 14.3286V20.1388H34.6841V9.45435H36.44V11.1896Z" fill="#010101"/>
<path d="M51.5299 14.3871C51.5299 14.7251 51.5106 15.0825 51.472 15.4595H43.0206C43.0849 16.5123 43.4387 17.3377 44.0819 17.9356C44.7379 18.5205 45.529 18.813 46.4552 18.813C47.2141 18.813 47.8444 18.6375 48.3461 18.2866C48.8607 17.9226 49.2208 17.4417 49.4267 16.8438H51.3176C51.0346 17.8706 50.4686 18.709 49.6196 19.3589C48.7706 19.9958 47.7158 20.3143 46.4552 20.3143C45.4518 20.3143 44.5514 20.0868 43.7538 19.6319C42.9692 19.1769 42.3517 18.5335 41.9015 17.7016C41.4512 16.8568 41.2261 15.8819 41.2261 14.7771C41.2261 13.6722 41.4448 12.7039 41.8822 11.872C42.3195 11.0401 42.9306 10.4032 43.7152 9.96128C44.5128 9.50634 45.4261 9.27888 46.4552 9.27888C47.4585 9.27888 48.3461 9.49985 49.1179 9.94178C49.8898 10.3837 50.4815 10.9946 50.8931 11.7745C51.3176 12.5414 51.5299 13.4123 51.5299 14.3871ZM49.7161 14.0167C49.7161 13.3408 49.5682 12.7624 49.2723 12.2814C48.9764 11.7875 48.5712 11.4171 48.0567 11.1701C47.555 10.9101 46.9954 10.7802 46.378 10.7802C45.4904 10.7802 44.7315 11.0661 44.1011 11.638C43.4837 12.2099 43.1299 13.0028 43.0399 14.0167H49.7161Z" fill="#010101"/>
<path d="M66.5632 9.25938C67.3865 9.25938 68.1197 9.43485 68.7629 9.7858C69.406 10.1238 69.9142 10.6372 70.2872 11.3261C70.6603 12.015 70.8468 12.8534 70.8468 13.8412V20.1388H69.1102V14.0947C69.1102 13.0288 68.8465 12.2164 68.3191 11.6575C67.8045 11.0856 67.1035 10.7997 66.2159 10.7997C65.3026 10.7997 64.5758 11.0986 64.0355 11.6965C63.4952 12.2814 63.2251 13.1328 63.2251 14.2506V20.1388H61.4885V14.0947C61.4885 13.0288 61.2248 12.2164 60.6974 11.6575C60.1829 11.0856 59.4818 10.7997 58.5942 10.7997C57.6809 10.7997 56.9541 11.0986 56.4138 11.6965C55.8736 12.2814 55.6034 13.1328 55.6034 14.2506V20.1388H53.8476V9.45435H55.6034V10.9946C55.9508 10.4357 56.4138 10.0068 56.9927 9.70782C57.5844 9.40886 58.234 9.25938 58.9415 9.25938C59.8291 9.25938 60.6138 9.46085 61.2956 9.86379C61.9773 10.2667 62.4854 10.8581 62.8199 11.638C63.1158 10.8841 63.6046 10.2992 64.2864 9.88329C64.9681 9.46735 65.7271 9.25938 66.5632 9.25938Z" fill="#010101"/>
<path d="M74.6339 7.71911C74.2995 7.71911 74.0165 7.60212 73.7849 7.36816C73.5534 7.13419 73.4376 6.84823 73.4376 6.51028C73.4376 6.17233 73.5534 5.88637 73.7849 5.65241C74.0165 5.41844 74.2995 5.30146 74.6339 5.30146C74.9555 5.30146 75.2257 5.41844 75.4443 5.65241C75.6759 5.88637 75.7917 6.17233 75.7917 6.51028C75.7917 6.84823 75.6759 7.13419 75.4443 7.36816C75.2257 7.60212 74.9555 7.71911 74.6339 7.71911ZM75.4829 9.45435V20.1388H73.7271V9.45435H75.4829Z" fill="#010101"/>
<path d="M87.8531 9.45435V20.1388H86.0972V18.5595C85.7627 19.1054 85.2932 19.5344 84.6886 19.8463C84.0969 20.1453 83.4409 20.2948 82.7205 20.2948C81.8972 20.2948 81.1576 20.1258 80.5015 19.7878C79.8455 19.4369 79.3245 18.917 78.9386 18.2281C78.5656 17.5392 78.3791 16.7008 78.3791 15.7129V9.45435H80.1156V15.479C80.1156 16.5318 80.3793 17.3442 80.9067 17.9161C81.4341 18.475 82.1545 18.7545 83.0678 18.7545C84.0069 18.7545 84.7465 18.462 85.2868 17.8771C85.8271 17.2922 86.0972 16.4408 86.0972 15.323V9.45435H87.8531Z" fill="#010101"/>
<path d="M103.533 9.25938C104.357 9.25938 105.09 9.43485 105.733 9.7858C106.376 10.1238 106.884 10.6372 107.257 11.3261C107.63 12.015 107.817 12.8534 107.817 13.8412V20.1388H106.08V14.0947C106.08 13.0288 105.817 12.2164 105.289 11.6575C104.775 11.0856 104.074 10.7997 103.186 10.7997C102.273 10.7997 101.546 11.0986 101.006 11.6965C100.465 12.2814 100.195 13.1328 100.195 14.2506V20.1388H98.4587V14.0947C98.4587 13.0288 98.195 12.2164 97.6676 11.6575C97.1531 11.0856 96.452 10.7997 95.5644 10.7997C94.6511 10.7997 93.9243 11.0986 93.3841 11.6965C92.8438 12.2814 92.5736 13.1328 92.5736 14.2506V20.1388H90.8178V9.45435H92.5736V10.9946C92.921 10.4357 93.3841 10.0068 93.9629 9.70782C94.5546 9.40886 95.2042 9.25938 95.9117 9.25938C96.7993 9.25938 97.584 9.46085 98.2658 9.86379C98.9476 10.2667 99.4557 10.8581 99.7901 11.638C100.086 10.8841 100.575 10.2992 101.257 9.88329C101.938 9.46735 102.697 9.25938 103.533 9.25938Z" fill="#010101"/>
<path d="M40.0181 28.9749C40.0181 28.3481 40.161 27.7859 40.4468 27.2882C40.7387 26.7905 41.1309 26.4034 41.6235 26.1269C42.1221 25.8442 42.6664 25.7029 43.2562 25.7029C43.9312 25.7029 44.5302 25.8719 45.0532 26.2098C45.5822 26.5416 45.9653 27.0148 46.2025 27.6292H44.9528C44.7886 27.2913 44.5606 27.0394 44.2687 26.8735C43.9768 26.7076 43.6393 26.6246 43.2562 26.6246C42.8367 26.6246 42.4627 26.7198 42.1343 26.9103C41.8059 27.1008 41.5475 27.3742 41.359 27.7306C41.1766 28.087 41.0853 28.5018 41.0853 28.9749C41.0853 29.448 41.1766 29.8628 41.359 30.2192C41.5475 30.5756 41.8059 30.8521 42.1343 31.0487C42.4627 31.2392 42.8367 31.3344 43.2562 31.3344C43.6393 31.3344 43.9768 31.2515 44.2687 31.0855C44.5606 30.9196 44.7886 30.6677 44.9528 30.3298H46.2025C45.9653 30.9442 45.5822 31.4174 45.0532 31.7492C44.5302 32.081 43.9312 32.2469 43.2562 32.2469C42.6603 32.2469 42.1161 32.1086 41.6235 31.8321C41.1309 31.5495 40.7387 31.1593 40.4468 30.6616C40.161 30.1639 40.0181 29.6016 40.0181 28.9749Z" fill="#010101"/>
<path d="M50.2837 25.3711V32.1916H49.2439V25.3711H50.2837Z" fill="#010101"/>
<path d="M55.6533 32.2745C55.179 32.2745 54.7503 32.167 54.3672 31.9519C53.9841 31.7307 53.6831 31.4235 53.4641 31.0302C53.2452 30.6309 53.1358 30.17 53.1358 29.6477C53.1358 29.1316 53.2483 28.6738 53.4733 28.2744C53.6983 27.875 54.0053 27.5678 54.3945 27.3527C54.7837 27.1377 55.2185 27.0301 55.6989 27.0301C56.1793 27.0301 56.6141 27.1377 57.0033 27.3527C57.3924 27.5678 57.6995 27.875 57.9245 28.2744C58.1495 28.6738 58.262 29.1316 58.262 29.6477C58.262 30.1639 58.1465 30.6216 57.9154 31.021C57.6843 31.4204 57.3681 31.7307 56.9668 31.9519C56.5715 32.167 56.1337 32.2745 55.6533 32.2745ZM55.6533 31.3621C55.9208 31.3621 56.1702 31.2975 56.4012 31.1685C56.6384 31.0395 56.8299 30.8459 56.9759 30.5878C57.1218 30.3298 57.1948 30.0164 57.1948 29.6477C57.1948 29.279 57.1249 28.9687 56.985 28.7168C56.8451 28.4587 56.6597 28.2652 56.4286 28.1362C56.1975 28.0071 55.9482 27.9426 55.6806 27.9426C55.4131 27.9426 55.1638 28.0071 54.9327 28.1362C54.7077 28.2652 54.5283 28.4587 54.3945 28.7168C54.2607 28.9687 54.1939 29.279 54.1939 29.6477C54.1939 30.1946 54.3307 30.6186 54.6043 30.9196C54.884 31.2146 55.2337 31.3621 55.6533 31.3621Z" fill="#010101"/>
<path d="M62.3274 27.9703V30.7814C62.3274 30.9719 62.37 31.1101 62.4551 31.1961C62.5463 31.276 62.6983 31.316 62.9112 31.316H63.5497V32.1916H62.7287C62.2605 32.1916 61.9017 32.081 61.6524 31.8598C61.4031 31.6386 61.2784 31.2791 61.2784 30.7814V27.9703H60.6855V27.1131H61.2784V25.8504H62.3274V27.1131H63.5497V27.9703H62.3274Z" fill="#010101"/>
<path d="M68.932 27.0301C69.3151 27.0301 69.6556 27.1131 69.9536 27.279C70.2576 27.4449 70.4948 27.6907 70.665 28.0163C70.8414 28.342 70.9296 28.7353 70.9296 29.1961V32.1916H69.8988V29.3528C69.8988 28.8981 69.7863 28.5509 69.5613 28.3113C69.3363 28.0655 69.0293 27.9426 68.6401 27.9426C68.2509 27.9426 67.9408 28.0655 67.7097 28.3113C67.4847 28.5509 67.3722 28.8981 67.3722 29.3528V32.1916H66.3324V25.3711H67.3722V27.703C67.5485 27.4879 67.7705 27.322 68.0381 27.2053C68.3117 27.0885 68.6097 27.0301 68.932 27.0301Z" fill="#010101"/>
<path d="M74.6093 26.4403C74.4208 26.4403 74.2627 26.3757 74.135 26.2467C74.0073 26.1177 73.9434 25.9579 73.9434 25.7674C73.9434 25.577 74.0073 25.4172 74.135 25.2882C74.2627 25.1591 74.4208 25.0946 74.6093 25.0946C74.7917 25.0946 74.9468 25.1591 75.0745 25.2882C75.2022 25.4172 75.266 25.577 75.266 25.7674C75.266 25.9579 75.2022 26.1177 75.0745 26.2467C74.9468 26.3757 74.7917 26.4403 74.6093 26.4403ZM75.1201 27.1131V32.1916H74.0802V27.1131H75.1201Z" fill="#010101"/>
<path d="M80.8453 27.0301C81.2406 27.0301 81.5933 27.1131 81.9034 27.279C82.2196 27.4449 82.4659 27.6907 82.6423 28.0163C82.8186 28.342 82.9068 28.7353 82.9068 29.1961V32.1916H81.8761V29.3528C81.8761 28.8981 81.7636 28.5509 81.5386 28.3113C81.3136 28.0655 81.0065 27.9426 80.6173 27.9426C80.2281 27.9426 79.918 28.0655 79.6869 28.3113C79.4619 28.5509 79.3494 28.8981 79.3494 29.3528V32.1916H78.3096V27.1131H79.3494V27.6938C79.5197 27.4848 79.7356 27.322 79.9971 27.2053C80.2646 27.0885 80.5474 27.0301 80.8453 27.0301Z" fill="#010101"/>
<path d="M88.0824 27.0301C88.4716 27.0301 88.8152 27.11 89.1132 27.2698C89.4172 27.4234 89.6544 27.6169 89.8246 27.8504V27.1131H90.8736V32.2745C90.8736 32.7415 90.7763 33.1563 90.5817 33.5188C90.3871 33.8875 90.1044 34.1763 89.7334 34.3852C89.3686 34.5941 88.9307 34.6985 88.4199 34.6985C87.7389 34.6985 87.1733 34.5357 86.7233 34.2101C86.2733 33.8905 86.0179 33.4543 85.9571 32.9013H86.9879C87.0669 33.1655 87.2341 33.3775 87.4895 33.5372C87.751 33.7031 88.0611 33.7861 88.4199 33.7861C88.8395 33.7861 89.177 33.657 89.4324 33.399C89.6939 33.1409 89.8246 32.7661 89.8246 32.2745V31.4266C89.6483 31.6662 89.4081 31.869 89.104 32.0349C88.8061 32.1946 88.4655 32.2745 88.0824 32.2745C87.6446 32.2745 87.2433 32.1639 86.8784 31.9427C86.5196 31.7154 86.2338 31.402 86.021 31.0026C85.8142 30.5971 85.7109 30.1393 85.7109 29.6293C85.7109 29.1193 85.8142 28.6677 86.021 28.2744C86.2338 27.8812 86.5196 27.577 86.8784 27.3619C87.2433 27.1407 87.6446 27.0301 88.0824 27.0301ZM89.8246 29.6477C89.8246 29.2975 89.7516 28.9933 89.6057 28.7353C89.4658 28.4772 89.2804 28.2806 89.0493 28.1454C88.8182 28.0102 88.5689 27.9426 88.3013 27.9426C88.0338 27.9426 87.7845 28.0102 87.5534 28.1454C87.3223 28.2744 87.1338 28.468 86.9879 28.726C86.848 28.978 86.7781 29.279 86.7781 29.6293C86.7781 29.9795 86.848 30.2868 86.9879 30.551C87.1338 30.8152 87.3223 31.018 87.5534 31.1593C87.7905 31.2945 88.0399 31.3621 88.3013 31.3621C88.5689 31.3621 88.8182 31.2945 89.0493 31.1593C89.2804 31.0241 89.4658 30.8275 89.6057 30.5694C89.7516 30.3052 89.8246 29.998 89.8246 29.6477Z" fill="#010101"/>
</svg>
