<svg width="173" height="27" viewBox="0 0 173 27" fill="none" xmlns="http://www.w3.org/2000/svg">
<g filter="url(#filter0_dii_209_792)">
<path d="M26.047 9.59777C26.0347 9.89275 25.8787 10.2296 25.5761 10.4957C24.3647 11.5599 23.1526 12.6231 21.9399 13.6852C21.3736 14.1821 20.8066 14.6781 20.2388 15.1734C20.1577 15.2439 20.1371 15.3065 20.162 15.4159C20.5979 17.3205 21.0302 19.226 21.459 21.1322C21.5458 21.5153 21.6313 21.8991 21.725 22.2809C21.8617 22.8462 21.6871 23.4049 21.2465 23.7212C20.7616 24.069 20.2468 24.0916 19.7344 23.7877C18.1019 22.8173 16.4716 21.843 14.8434 20.8648C14.4633 20.6377 14.0785 20.4159 13.7047 20.1804C13.5797 20.1016 13.4889 20.1009 13.3606 20.1781C11.3805 21.3667 9.39613 22.5479 7.41841 23.7361C6.99839 23.9882 6.56939 24.083 6.10514 23.8924C5.4909 23.6404 5.16998 22.9945 5.32263 22.3234C5.75429 20.4239 6.18661 18.5243 6.6196 16.6247C6.71072 16.2257 6.7922 15.8236 6.89097 15.4275C6.91957 15.3131 6.89962 15.2456 6.81282 15.1701C6.06878 14.523 5.32662 13.8736 4.58634 13.222C3.5491 12.3114 2.50786 11.4072 1.4766 10.49C1.05558 10.1162 0.895949 9.63901 1.06855 9.09328C1.24114 8.54755 1.62691 8.21899 2.20224 8.15979C3.22186 8.05537 4.24314 7.96791 5.26376 7.87446C6.27341 7.78201 7.28306 7.69022 8.2927 7.5991C8.62925 7.56884 8.9658 7.53492 9.30268 7.50931C9.41109 7.50133 9.46896 7.45377 9.50953 7.355C10.4241 5.20601 11.3402 3.05791 12.2578 0.910696C12.5112 0.317081 12.9638 -0.0144795 13.5391 0.000485568C14.1145 0.0154507 14.5295 0.296462 14.7576 0.824897C15.3785 2.26254 15.9914 3.70352 16.607 5.14383C16.9202 5.87545 17.2342 6.60908 17.5421 7.34403C17.5894 7.4571 17.6569 7.501 17.7749 7.51031C18.5864 7.57904 19.3976 7.65109 20.2086 7.72647C21.3894 7.83378 22.5701 7.94197 23.7507 8.05105C24.1258 8.0843 24.5012 8.11756 24.8754 8.15946C25.5558 8.23994 26.0523 8.80761 26.047 9.59777Z" fill="#FFC700"/>
</g>
<g filter="url(#filter1_dii_209_792)">
<path d="M63.0938 9.59777C63.0815 9.89275 62.9256 10.2296 62.6229 10.4957C61.4115 11.5599 60.1995 12.6231 58.9868 13.6852C58.4205 14.1821 57.8535 14.6781 57.2857 15.1734C57.2046 15.2439 57.184 15.3065 57.2089 15.4159C57.6448 17.3205 58.0771 19.226 58.5059 21.1322C58.5927 21.5153 58.6781 21.8991 58.7719 22.2809C58.9086 22.8462 58.734 23.4049 58.2934 23.7212C57.8085 24.069 57.2937 24.0916 56.7812 23.7877C55.1488 22.8173 53.5185 21.843 51.8903 20.8648C51.5102 20.6377 51.1254 20.4159 50.7516 20.1804C50.6266 20.1016 50.5358 20.1009 50.4074 20.1781C48.4274 21.3667 46.443 22.5479 44.4653 23.7361C44.0453 23.9882 43.6163 24.083 43.152 23.8924C42.5378 23.6404 42.2169 22.9945 42.3695 22.3234C42.8012 20.4239 43.2335 18.5243 43.6665 16.6247C43.7576 16.2257 43.8391 15.8236 43.9378 15.4275C43.9664 15.3131 43.9465 15.2456 43.8597 15.1701C43.1157 14.523 42.3735 13.8736 41.6332 13.222C40.596 12.3114 39.5547 11.4072 38.5235 10.49C38.1025 10.1162 37.9428 9.63901 38.1154 9.09328C38.288 8.54755 38.6738 8.21899 39.2491 8.15979C40.2687 8.05537 41.29 7.96791 42.3106 7.87446C43.3203 7.78201 44.3299 7.69022 45.3396 7.5991C45.6761 7.56884 46.0127 7.53492 46.3496 7.50931C46.458 7.50133 46.5158 7.45377 46.5564 7.355C47.4709 5.20601 48.387 3.05791 49.3047 0.910696C49.5581 0.317081 50.0107 -0.0144795 50.586 0.000485568C51.1613 0.0154507 51.5764 0.296462 51.8045 0.824897C52.4254 2.26254 53.0383 3.70352 53.6539 5.14383C53.9671 5.87545 54.2811 6.60908 54.589 7.34403C54.6362 7.4571 54.7037 7.501 54.8218 7.51031C55.6332 7.57904 56.4445 7.65109 57.2555 7.72647C58.4363 7.83378 59.617 7.94197 60.7975 8.05105C61.1727 8.0843 61.5481 8.11756 61.9222 8.15946C62.6027 8.23994 63.0992 8.80761 63.0938 9.59777Z" fill="#FFC700"/>
</g>
<g filter="url(#filter2_dii_209_792)">
<path d="M100.141 9.59777C100.129 9.89275 99.9727 10.2296 99.6701 10.4957C98.4587 11.5599 97.2466 12.6231 96.0339 13.6852C95.4676 14.1821 94.9006 14.6781 94.3328 15.1734C94.2517 15.2439 94.2311 15.3065 94.256 15.4159C94.6919 17.3205 95.1242 19.226 95.553 21.1322C95.6398 21.5153 95.7253 21.8991 95.819 22.2809C95.9557 22.8462 95.7811 23.4049 95.3405 23.7212C94.8556 24.069 94.3408 24.0916 93.8284 23.7877C92.1959 22.8173 90.5656 21.843 88.9374 20.8648C88.5573 20.6377 88.1725 20.4159 87.7987 20.1804C87.6737 20.1016 87.5829 20.1009 87.4545 20.1781C85.4745 21.3667 83.4901 22.5479 81.5124 23.7361C81.0924 23.9882 80.6634 24.083 80.1991 23.8924C79.5849 23.6404 79.264 22.9945 79.4166 22.3234C79.8483 20.4239 80.2806 18.5243 80.7136 16.6247C80.8047 16.2257 80.8862 15.8236 80.985 15.4275C81.0136 15.3131 80.9936 15.2456 80.9068 15.1701C80.1628 14.523 79.4206 13.8736 78.6803 13.222C77.6431 12.3114 76.6019 11.4072 75.5706 10.49C75.1496 10.1162 74.9899 9.63901 75.1625 9.09328C75.3351 8.54755 75.7209 8.21899 76.2962 8.15979C77.3159 8.05537 78.3371 7.96791 79.3578 7.87446C80.3674 7.78201 81.377 7.69022 82.3867 7.5991C82.7232 7.56884 83.0598 7.53492 83.3967 7.50931C83.5051 7.50133 83.563 7.45377 83.6035 7.355C84.5181 5.20601 85.4341 3.05791 86.3518 0.910696C86.6052 0.317081 87.0578 -0.0144795 87.6331 0.000485568C88.2085 0.0154507 88.6235 0.296462 88.8516 0.824897C89.4725 2.26254 90.0854 3.70352 90.701 5.14383C91.0142 5.87545 91.3282 6.60908 91.6361 7.34403C91.6834 7.4571 91.7509 7.501 91.8689 7.51031C92.6804 7.57904 93.4916 7.65109 94.3026 7.72647C95.4834 7.83378 96.6641 7.94197 97.8447 8.05105C98.2198 8.0843 98.5952 8.11756 98.9694 8.15946C99.6498 8.23994 100.146 8.80761 100.141 9.59777Z" fill="#FFC700"/>
</g>
<g filter="url(#filter3_i_209_792)">
<path d="M136.664 9.59777C136.652 9.89275 136.496 10.2296 136.194 10.4957C134.982 11.5599 133.77 12.6231 132.557 13.6852C131.991 14.1821 131.424 14.6781 130.856 15.1734C130.775 15.2439 130.755 15.3065 130.78 15.4159C131.215 17.3205 131.648 19.226 132.076 21.1322C132.163 21.5153 132.249 21.8991 132.343 22.2809C132.479 22.8462 132.305 23.4049 131.864 23.7212C131.379 24.069 130.864 24.0916 130.352 23.7877C128.719 22.8173 127.089 21.843 125.461 20.8648C125.081 20.6377 124.696 20.4159 124.322 20.1804C124.197 20.1016 124.106 20.1009 123.978 20.1781C121.998 21.3667 120.014 22.5479 118.036 23.7361C117.616 23.9882 117.187 24.083 116.723 23.8924C116.108 23.6404 115.787 22.9945 115.94 22.3234C116.372 20.4239 116.804 18.5243 117.237 16.6247C117.328 16.2257 117.41 15.8236 117.508 15.4275C117.537 15.3131 117.517 15.2456 117.43 15.1701C116.686 14.523 115.944 13.8736 115.204 13.222C114.167 12.3114 113.125 11.4072 112.094 10.49C111.673 10.1162 111.513 9.63901 111.686 9.09328C111.859 8.54755 112.244 8.21899 112.82 8.15979C113.839 8.05537 114.861 7.96791 115.881 7.87446C116.891 7.78201 117.901 7.69022 118.91 7.5991C119.247 7.56884 119.583 7.53492 119.92 7.50931C120.029 7.50133 120.086 7.45377 120.127 7.355C121.042 5.20601 121.958 3.05791 122.875 0.910696C123.129 0.317081 123.581 -0.0144795 124.157 0.000485568C124.732 0.0154507 125.147 0.296462 125.375 0.824897C125.996 2.26254 126.609 3.70352 127.224 5.14383C127.538 5.87545 127.852 6.60908 128.16 7.34403C128.207 7.4571 128.274 7.501 128.392 7.51031C129.204 7.57904 130.015 7.65109 130.826 7.72647C132.007 7.83378 133.188 7.94197 134.368 8.05105C134.743 8.0843 135.119 8.11756 135.493 8.15946C136.173 8.23994 136.67 8.80761 136.664 9.59777Z" fill="#F1F2F9"/>
</g>
<g filter="url(#filter4_i_209_792)">
<path d="M172.664 9.59777C172.652 9.89275 172.496 10.2296 172.194 10.4957C170.982 11.5599 169.77 12.6231 168.557 13.6852C167.991 14.1821 167.424 14.6781 166.856 15.1734C166.775 15.2439 166.755 15.3065 166.78 15.4159C167.215 17.3205 167.648 19.226 168.076 21.1322C168.163 21.5153 168.249 21.8991 168.343 22.2809C168.479 22.8462 168.305 23.4049 167.864 23.7212C167.379 24.069 166.864 24.0916 166.352 23.7877C164.719 22.8173 163.089 21.843 161.461 20.8648C161.081 20.6377 160.696 20.4159 160.322 20.1804C160.197 20.1016 160.106 20.1009 159.978 20.1781C157.998 21.3667 156.014 22.5479 154.036 23.7361C153.616 23.9882 153.187 24.083 152.723 23.8924C152.108 23.6404 151.787 22.9945 151.94 22.3234C152.372 20.4239 152.804 18.5243 153.237 16.6247C153.328 16.2257 153.41 15.8236 153.508 15.4275C153.537 15.3131 153.517 15.2456 153.43 15.1701C152.686 14.523 151.944 13.8736 151.204 13.222C150.167 12.3114 149.125 11.4072 148.094 10.49C147.673 10.1162 147.513 9.63901 147.686 9.09328C147.859 8.54755 148.244 8.21899 148.82 8.15979C149.839 8.05537 150.861 7.96791 151.881 7.87446C152.891 7.78201 153.901 7.69022 154.91 7.5991C155.247 7.56884 155.583 7.53492 155.92 7.50931C156.029 7.50133 156.086 7.45377 156.127 7.355C157.042 5.20601 157.958 3.05791 158.875 0.910696C159.129 0.317081 159.581 -0.0144795 160.157 0.000485568C160.732 0.0154507 161.147 0.296462 161.375 0.824897C161.996 2.26254 162.609 3.70352 163.224 5.14383C163.538 5.87545 163.852 6.60908 164.16 7.34403C164.207 7.4571 164.274 7.501 164.392 7.51031C165.204 7.57904 166.015 7.65109 166.826 7.72647C168.007 7.83378 169.188 7.94197 170.368 8.05105C170.743 8.0843 171.119 8.11756 171.493 8.15946C172.173 8.23994 172.67 8.80761 172.664 9.59777Z" fill="#F1F2F9"/>
</g>
<defs>
<filter id="filter0_dii_209_792" x="0" y="-1" width="27.047" height="28" filterUnits="userSpaceOnUse" color-interpolation-filters="sRGB">
<feFlood flood-opacity="0" result="BackgroundImageFix"/>
<feColorMatrix in="SourceAlpha" type="matrix" values="0 0 0 0 0 0 0 0 0 0 0 0 0 0 0 0 0 0 127 0" result="hardAlpha"/>
<feOffset dy="2"/>
<feGaussianBlur stdDeviation="0.5"/>
<feComposite in2="hardAlpha" operator="out"/>
<feColorMatrix type="matrix" values="0 0 0 0 0.624255 0 0 0 0 0.487164 0 0 0 0 0 0 0 0 0.08 0"/>
<feBlend mode="normal" in2="BackgroundImageFix" result="effect1_dropShadow_209_792"/>
<feBlend mode="normal" in="SourceGraphic" in2="effect1_dropShadow_209_792" result="shape"/>
<feColorMatrix in="SourceAlpha" type="matrix" values="0 0 0 0 0 0 0 0 0 0 0 0 0 0 0 0 0 0 127 0" result="hardAlpha"/>
<feOffset dy="-1"/>
<feGaussianBlur stdDeviation="0.75"/>
<feComposite in2="hardAlpha" operator="arithmetic" k2="-1" k3="1"/>
<feColorMatrix type="matrix" values="0 0 0 0 0.604642 0 0 0 0 0.433327 0 0 0 0 0 0 0 0 0.3 0"/>
<feBlend mode="normal" in2="shape" result="effect2_innerShadow_209_792"/>
<feColorMatrix in="SourceAlpha" type="matrix" values="0 0 0 0 0 0 0 0 0 0 0 0 0 0 0 0 0 0 127 0" result="hardAlpha"/>
<feOffset dy="1"/>
<feGaussianBlur stdDeviation="0.75"/>
<feComposite in2="hardAlpha" operator="arithmetic" k2="-1" k3="1"/>
<feColorMatrix type="matrix" values="0 0 0 0 1 0 0 0 0 1 0 0 0 0 1 0 0 0 0.7 0"/>
<feBlend mode="normal" in2="effect2_innerShadow_209_792" result="effect3_innerShadow_209_792"/>
</filter>
<filter id="filter1_dii_209_792" x="37.0469" y="-1" width="27.047" height="28" filterUnits="userSpaceOnUse" color-interpolation-filters="sRGB">
<feFlood flood-opacity="0" result="BackgroundImageFix"/>
<feColorMatrix in="SourceAlpha" type="matrix" values="0 0 0 0 0 0 0 0 0 0 0 0 0 0 0 0 0 0 127 0" result="hardAlpha"/>
<feOffset dy="2"/>
<feGaussianBlur stdDeviation="0.5"/>
<feComposite in2="hardAlpha" operator="out"/>
<feColorMatrix type="matrix" values="0 0 0 0 0.624255 0 0 0 0 0.487164 0 0 0 0 0 0 0 0 0.08 0"/>
<feBlend mode="normal" in2="BackgroundImageFix" result="effect1_dropShadow_209_792"/>
<feBlend mode="normal" in="SourceGraphic" in2="effect1_dropShadow_209_792" result="shape"/>
<feColorMatrix in="SourceAlpha" type="matrix" values="0 0 0 0 0 0 0 0 0 0 0 0 0 0 0 0 0 0 127 0" result="hardAlpha"/>
<feOffset dy="-1"/>
<feGaussianBlur stdDeviation="0.75"/>
<feComposite in2="hardAlpha" operator="arithmetic" k2="-1" k3="1"/>
<feColorMatrix type="matrix" values="0 0 0 0 0.604642 0 0 0 0 0.433327 0 0 0 0 0 0 0 0 0.3 0"/>
<feBlend mode="normal" in2="shape" result="effect2_innerShadow_209_792"/>
<feColorMatrix in="SourceAlpha" type="matrix" values="0 0 0 0 0 0 0 0 0 0 0 0 0 0 0 0 0 0 127 0" result="hardAlpha"/>
<feOffset dy="1"/>
<feGaussianBlur stdDeviation="0.75"/>
<feComposite in2="hardAlpha" operator="arithmetic" k2="-1" k3="1"/>
<feColorMatrix type="matrix" values="0 0 0 0 1 0 0 0 0 1 0 0 0 0 1 0 0 0 0.7 0"/>
<feBlend mode="normal" in2="effect2_innerShadow_209_792" result="effect3_innerShadow_209_792"/>
</filter>
<filter id="filter2_dii_209_792" x="74.094" y="-1" width="27.047" height="28" filterUnits="userSpaceOnUse" color-interpolation-filters="sRGB">
<feFlood flood-opacity="0" result="BackgroundImageFix"/>
<feColorMatrix in="SourceAlpha" type="matrix" values="0 0 0 0 0 0 0 0 0 0 0 0 0 0 0 0 0 0 127 0" result="hardAlpha"/>
<feOffset dy="2"/>
<feGaussianBlur stdDeviation="0.5"/>
<feComposite in2="hardAlpha" operator="out"/>
<feColorMatrix type="matrix" values="0 0 0 0 0.624255 0 0 0 0 0.487164 0 0 0 0 0 0 0 0 0.08 0"/>
<feBlend mode="normal" in2="BackgroundImageFix" result="effect1_dropShadow_209_792"/>
<feBlend mode="normal" in="SourceGraphic" in2="effect1_dropShadow_209_792" result="shape"/>
<feColorMatrix in="SourceAlpha" type="matrix" values="0 0 0 0 0 0 0 0 0 0 0 0 0 0 0 0 0 0 127 0" result="hardAlpha"/>
<feOffset dy="-1"/>
<feGaussianBlur stdDeviation="0.75"/>
<feComposite in2="hardAlpha" operator="arithmetic" k2="-1" k3="1"/>
<feColorMatrix type="matrix" values="0 0 0 0 0.604642 0 0 0 0 0.433327 0 0 0 0 0 0 0 0 0.3 0"/>
<feBlend mode="normal" in2="shape" result="effect2_innerShadow_209_792"/>
<feColorMatrix in="SourceAlpha" type="matrix" values="0 0 0 0 0 0 0 0 0 0 0 0 0 0 0 0 0 0 127 0" result="hardAlpha"/>
<feOffset dy="1"/>
<feGaussianBlur stdDeviation="0.75"/>
<feComposite in2="hardAlpha" operator="arithmetic" k2="-1" k3="1"/>
<feColorMatrix type="matrix" values="0 0 0 0 1 0 0 0 0 1 0 0 0 0 1 0 0 0 0.7 0"/>
<feBlend mode="normal" in2="effect2_innerShadow_209_792" result="effect3_innerShadow_209_792"/>
</filter>
<filter id="filter3_i_209_792" x="111.617" y="0" width="25.047" height="25" filterUnits="userSpaceOnUse" color-interpolation-filters="sRGB">
<feFlood flood-opacity="0" result="BackgroundImageFix"/>
<feBlend mode="normal" in="SourceGraphic" in2="BackgroundImageFix" result="shape"/>
<feColorMatrix in="SourceAlpha" type="matrix" values="0 0 0 0 0 0 0 0 0 0 0 0 0 0 0 0 0 0 127 0" result="hardAlpha"/>
<feOffset dy="1"/>
<feGaussianBlur stdDeviation="1"/>
<feComposite in2="hardAlpha" operator="arithmetic" k2="-1" k3="1"/>
<feColorMatrix type="matrix" values="0 0 0 0 0 0 0 0 0 0 0 0 0 0 0 0 0 0 0.07 0"/>
<feBlend mode="normal" in2="shape" result="effect1_innerShadow_209_792"/>
</filter>
<filter id="filter4_i_209_792" x="147.617" y="0" width="25.047" height="25" filterUnits="userSpaceOnUse" color-interpolation-filters="sRGB">
<feFlood flood-opacity="0" result="BackgroundImageFix"/>
<feBlend mode="normal" in="SourceGraphic" in2="BackgroundImageFix" result="shape"/>
<feColorMatrix in="SourceAlpha" type="matrix" values="0 0 0 0 0 0 0 0 0 0 0 0 0 0 0 0 0 0 127 0" result="hardAlpha"/>
<feOffset dy="1"/>
<feGaussianBlur stdDeviation="1"/>
<feComposite in2="hardAlpha" operator="arithmetic" k2="-1" k3="1"/>
<feColorMatrix type="matrix" values="0 0 0 0 0 0 0 0 0 0 0 0 0 0 0 0 0 0 0.07 0"/>
<feBlend mode="normal" in2="shape" result="effect1_innerShadow_209_792"/>
</filter>
</defs>
</svg>
